<svg width="38" height="25" viewBox="0 0 38 25" fill="none" xmlns="http://www.w3.org/2000/svg">
<rect y="0.196045" width="38" height="24" rx="8" fill="#E21C13"/>
<path d="M12.2871 16.1489C13.4571 16.1489 14.3121 15.8403 14.8521 15.2232C15.405 14.606 15.6814 13.6482 15.6814 12.3496V12.1953C15.6814 10.871 15.4114 9.91962 14.8714 9.34104C14.3314 8.74962 13.4571 8.4539 12.2486 8.4539H11.3807V16.1489H12.2871ZM7.40786 5.40676H12.4221C14.8393 5.40676 16.6714 5.99176 17.9186 7.16176C19.1786 8.3189 19.8086 9.97747 19.8086 12.1375V12.2918C19.8086 14.4775 19.185 16.1618 17.9379 17.3446C16.665 18.5789 14.82 19.196 12.4029 19.196H7.40786V5.40676ZM24.0873 13.8925H20.693V11.3853H24.0873V7.68247H26.8644V11.3853H30.2587V13.8925H26.8644V17.5953H24.0873V13.8925Z" fill="white"/>
</svg>
