<svg width="61" height="61" viewBox="0 0 61 61" fill="none" xmlns="http://www.w3.org/2000/svg">
<rect x="0.5" y="0.944336" width="60" height="60" rx="30" fill="black"/>
<path d="M35.6985 45.3916H25.3019C24.7744 45.3916 24.347 44.9594 24.347 44.426C24.347 43.8926 24.7744 43.4604 25.3019 43.4604H35.6985C36.226 43.4604 36.6534 43.8926 36.6534 44.426C36.6534 44.959 36.2256 45.3916 35.6985 45.3916Z" fill="white"/>
<path d="M30.5002 45.3916C29.9727 45.3916 29.5452 44.9594 29.5452 44.426V38.4508C29.5452 37.9174 29.9727 37.4852 30.5002 37.4852C31.0277 37.4852 31.4551 37.9174 31.4551 38.4508V44.4256C31.4548 44.9591 31.0273 45.3916 30.5002 45.3916Z" fill="white"/>
<path d="M30.5519 34.9963H30.4481C27.6059 34.9963 25.3019 32.6665 25.3019 29.7926V20.5957C25.3019 17.7214 27.6059 15.3916 30.4481 15.3916H30.5519C33.3941 15.3916 35.6981 17.7214 35.6981 20.5954V29.7922C35.6985 32.6665 33.3944 34.9963 30.5519 34.9963Z" fill="white"/>
<path d="M30.5519 38.8407H30.4481C28.058 38.8407 25.8109 37.8994 24.1207 36.1907C22.4306 34.4816 21.5 32.2094 21.5 29.7926C21.5 29.2592 21.9274 28.827 22.4549 28.827C22.9824 28.827 23.4099 29.2592 23.4099 29.7926C23.4099 31.6936 24.142 33.481 25.4712 34.8251C26.8008 36.1692 28.568 36.9095 30.4481 36.9095H30.5519C32.432 36.9095 34.1996 36.1692 35.5288 34.8251C36.858 33.481 37.5901 31.6936 37.5901 29.7926C37.5901 29.2592 38.0176 28.827 38.5451 28.827C39.0726 28.827 39.5 29.2592 39.5 29.7926C39.5 32.2094 38.5691 34.4816 36.8793 36.1907C35.1891 37.8997 32.9423 38.8407 30.5519 38.8407Z" fill="white"/>
</svg>
