<svg width="215" height="58" viewBox="0 0 215 58" fill="none" xmlns="http://www.w3.org/2000/svg">
<g clip-path="url(#clip0_2733_529)">
<path d="M102.385 32.8994V20.1432L107.692 32.8994H112.204L117.512 20.1432V32.8994H122.178V13.4526H115.614L109.949 26.9119L104.308 13.4526H97.7194V32.8994H102.385Z" fill="white"/>
<path d="M132.084 33.2379C134.545 33.2379 136.57 32.587 138.134 31.2593C139.698 29.9316 140.493 28.0833 140.493 25.7142C140.493 23.3713 139.698 21.5229 138.134 20.1952C136.57 18.8675 134.545 18.1907 132.084 18.1907C129.597 18.1907 127.546 18.8675 125.982 20.1952C124.418 21.5229 123.649 23.3713 123.649 25.7142C123.649 28.0833 124.418 29.9316 125.982 31.2593C127.546 32.587 129.597 33.2379 132.084 33.2379ZM132.058 29.3849C129.905 29.3849 128.392 27.9791 128.392 25.7142C128.392 23.5014 129.905 22.0436 132.058 22.0436C134.237 22.0436 135.724 23.5014 135.724 25.7142C135.724 27.9791 134.237 29.3849 132.058 29.3849Z" fill="white"/>
<path d="M148.787 33.2379C150.992 33.2379 152.787 32.7954 154.197 31.9102C155.607 31.0251 156.324 29.8275 156.324 28.2916C156.324 26.9639 155.812 25.9226 154.786 25.1675C153.787 24.4126 152.582 23.9961 151.171 23.97L147.275 23.84C146.07 23.8139 145.557 23.5796 145.557 22.8246C145.557 21.9134 146.505 21.4708 148.403 21.4708C150.274 21.4708 151.248 21.9655 151.376 22.9807H156.093C155.966 21.3927 155.171 20.2213 153.71 19.4143C152.248 18.6072 150.479 18.1907 148.403 18.1907C146.249 18.1907 144.48 18.6333 143.121 19.5184C141.763 20.4036 141.096 21.601 141.096 23.1371C141.096 24.3606 141.583 25.3498 142.557 26.1048C143.557 26.8597 144.762 27.2503 146.172 27.2762L150.069 27.4064C151.274 27.4325 151.889 27.7448 151.889 28.6039C151.889 29.5151 150.864 29.9577 148.787 29.9577C146.916 29.9577 145.531 29.3068 145.429 28.2655H140.737C140.839 29.9057 141.634 31.1292 143.096 31.9883C144.583 32.8213 146.48 33.2379 148.787 33.2379Z" fill="white"/>
<path d="M165.139 33.2379C167.292 33.2379 169.087 32.7173 170.55 31.7019C172.011 30.6867 172.907 29.2548 173.241 27.4064H168.344C167.806 28.7342 166.73 29.3849 165.139 29.3849C163.063 29.3849 161.499 27.9791 161.499 25.7142C161.499 23.4494 163.011 22.0436 165.139 22.0436C166.73 22.0436 167.806 22.6945 168.344 24.022H173.241C172.6 20.2994 169.472 18.1907 165.139 18.1907C162.679 18.1907 160.653 18.8675 159.089 20.1952C157.525 21.5229 156.756 23.3713 156.756 25.7142C156.756 28.0573 157.525 29.9057 159.089 31.2333C160.653 32.561 162.679 33.2379 165.139 33.2379Z" fill="white"/>
<path d="M182.058 33.2379C184.519 33.2379 186.544 32.587 188.108 31.2593C189.672 29.9316 190.467 28.0833 190.467 25.7142C190.467 23.3713 189.672 21.5229 188.108 20.1952C186.544 18.8675 184.519 18.1907 182.058 18.1907C179.571 18.1907 177.52 18.8675 175.957 20.1952C174.393 21.5229 173.624 23.3713 173.624 25.7142C173.624 28.0833 174.393 29.9316 175.957 31.2593C177.52 32.587 179.571 33.2379 182.058 33.2379ZM182.032 29.3849C179.879 29.3849 178.367 27.9791 178.367 25.7142C178.367 23.5014 179.879 22.0436 182.032 22.0436C184.211 22.0436 185.698 23.5014 185.698 25.7142C185.698 27.9791 184.211 29.3849 182.032 29.3849Z" fill="white"/>
<path d="M199.595 32.8994L202.235 24.5168L204.85 32.8994H209.67L214.951 18.5291H210.003L207.209 28.0313L204.158 18.5291H200.313L197.363 28.0313L194.467 18.5291H189.518L194.775 32.8994H199.595Z" fill="white"/>
<path fill-rule="evenodd" clip-rule="evenodd" d="M23.0911 6.6393L25.6193 1.59592L23.2894 0.391602L20.9302 5.09765C20.0694 4.55541 19.1876 4.07955 18.2961 3.66895C14.2796 1.81905 10.0321 1.28065 6.63255 2.01545C3.23796 2.74917 0.404142 4.86403 0.0448209 8.46492C-0.252105 11.4405 0.94122 13.8378 3.17986 15.6218C5.34815 17.3496 8.49098 18.5098 12.2303 19.2638C12.7063 19.3596 13.1943 19.4494 13.6937 19.5333L6.64615 33.5921L8.38841 35.3852L23.1471 28.0086L29.7023 32.9088L31.7737 32.0108C32.3327 27.6438 32.1463 23.7777 31.4074 20.3939C33.5932 20.326 35.8483 20.2106 38.1568 20.0524C36.6887 21.701 35.8839 23.6868 35.5337 25.5523C35.2265 27.1899 35.2568 28.7781 35.5036 30.0447C35.6266 30.6755 35.8118 31.2703 36.0666 31.7661C36.2989 32.2182 36.6952 32.7954 37.3471 33.0653C38.0447 33.3542 38.7478 33.2166 39.261 33.0325C39.7961 32.8404 40.3311 32.5243 40.8299 32.1737C41.8326 31.4688 42.9031 30.4704 43.8592 29.4925C44.0878 29.2587 44.3121 29.0237 44.5302 28.7909C44.5496 29.3798 44.6108 29.9406 44.7168 30.4395C44.816 30.906 44.9676 31.3852 45.2057 31.8047C45.4414 32.2201 45.8227 32.6794 46.4175 32.9096C47.0462 33.1529 47.6769 33.0503 48.2066 32.7916C48.6364 32.5816 49.0341 32.2563 49.4057 31.8654L49.4062 31.8659L49.4171 31.8534C49.4771 31.79 49.5363 31.725 49.5949 31.6585L50.4661 30.6689L50.4626 30.6656C51.5188 29.429 53.1767 27.1866 54.6278 25.1733C54.6251 25.9353 54.6589 26.6809 54.7223 27.3782C54.8384 28.6555 55.062 29.8689 55.3943 30.8006C55.558 31.2594 55.7753 31.7291 56.0756 32.1084C56.3671 32.4768 56.8938 32.9464 57.6629 32.9408C58.0532 32.9378 58.4059 32.8146 58.6704 32.6953C58.9509 32.569 59.2336 32.4001 59.5081 32.2135C60.0574 31.8401 60.6744 31.3262 61.3239 30.7289C62.4847 29.6613 63.8353 28.247 65.2248 26.6823C65.2427 26.767 65.2607 26.851 65.2785 26.9342C65.5824 28.3503 65.8798 29.5833 66.1586 30.5013C66.2967 30.9563 66.4416 31.3721 66.5945 31.7069C66.6705 31.8731 66.7638 32.0538 66.8787 32.2204C66.976 32.3611 67.1775 32.6255 67.5118 32.7982C68.0387 33.0702 68.5573 32.982 68.8595 32.8914C69.1803 32.7954 69.4796 32.6316 69.734 32.4678C70.249 32.1362 70.8196 31.6463 71.3943 31.098C72.5563 29.9893 73.9246 28.457 75.2148 26.9333C75.901 26.123 76.5723 25.3064 77.1884 24.5438C77.0976 25.4861 77.0309 26.4408 77.0049 27.3389C76.9669 28.6494 77.0108 29.9537 77.2436 30.9394C77.3563 31.4168 77.5489 31.9819 77.9292 32.4231C78.1331 32.6595 78.4098 32.8818 78.7695 33.0104C79.1348 33.141 79.5056 33.146 79.8468 33.0687C81.0515 32.7956 82.1964 31.9248 83.179 30.9731C84.1973 29.9868 85.205 28.7492 86.1267 27.4977C86.3546 27.1882 86.5793 26.875 86.7992 26.5618C86.4648 28.4309 86.0774 30.5933 85.6658 32.888C81.8873 34.6564 79.0293 35.9988 76.9519 36.977C75.3481 37.7321 74.2094 38.2702 73.4716 38.6195C73.1026 38.7943 72.8338 38.9219 72.6571 39.0057C72.5688 39.0478 72.5034 39.0788 72.4601 39.0994L72.3956 39.1302H72.3953L71.6436 40.3317C71.6436 40.3317 71.6436 40.3325 71.6436 40.3333V40.3497L71.6438 40.3636L71.6441 40.3814C71.6445 40.4072 71.6453 40.442 71.6467 40.4854C71.6496 40.5724 71.6553 40.694 71.666 40.8474C71.6876 41.1539 71.7299 41.5876 71.8126 42.1231C71.9782 43.1933 72.307 44.6769 72.961 46.3681C74.2731 49.762 76.8891 53.9746 82.0656 57.3387L84.0542 56.4699C84.6722 53.1873 86.2888 44.2227 87.7494 36.0869C87.8317 35.6288 87.9133 35.1733 87.9944 34.7215C89.7342 33.9079 91.6532 33.0112 93.7632 32.0266L94.9511 31.4722L93.8593 29.0599L92.6715 29.6143C91.2134 30.2947 89.8463 30.9333 88.5665 31.5314C88.9851 29.1966 89.3679 27.0579 89.6815 25.3048C89.9363 23.8811 90.1453 22.7117 90.2906 21.8982L90.5175 20.6285L90.5176 20.6275L90.5178 20.6272L88.1352 19.6673C87.9576 19.9449 87.7452 20.2863 87.5028 20.6755L87.5021 20.6769C86.6436 22.0561 85.4116 24.036 84.033 25.9078C83.1521 27.104 82.2432 28.2106 81.3744 29.0521C80.7445 29.6621 80.2076 30.0611 79.7775 30.284C79.6354 29.6534 79.5823 28.6555 79.6183 27.4171C79.6903 24.9339 80.1029 21.9218 80.4388 20.1597L78.1185 19.0992L78.0927 19.1332C78.0753 19.1562 78.049 19.1907 78.0147 19.2356C77.9461 19.3258 77.8448 19.4585 77.715 19.6273C77.4554 19.9651 77.0823 20.4475 76.6293 21.024C75.7228 22.1782 74.5006 23.7046 73.2324 25.2025C71.9578 26.7078 70.6623 28.1536 69.604 29.1633C69.268 29.4839 68.9739 29.743 68.726 29.9401C68.7037 29.8709 68.6808 29.7974 68.657 29.7191C68.4111 28.9089 68.1319 27.7624 67.833 26.3691C67.6861 25.6841 67.5357 24.9466 67.3836 24.1695C69.9896 21.0412 72.534 17.6478 74.0606 15.1788L74.2556 14.3544C74.0426 11.9441 72.4819 8.59334 70.4368 5.8969C69.397 4.5259 68.1801 3.25313 66.8592 2.3148C65.5467 1.3825 64.0412 0.717806 62.4564 0.729501L61.172 2.24515V2.24554L61.1838 2.3287C61.1915 2.38346 61.203 2.46459 61.2181 2.57034C61.2484 2.78182 61.2928 3.09181 61.3499 3.48645C61.4642 4.27569 61.629 5.40368 61.8319 6.75969C62.2376 9.47105 62.7951 13.0969 63.4027 16.7503C63.7815 19.0284 64.1807 21.3239 64.5757 23.4184C64.3118 23.7277 64.0482 24.0333 63.7855 24.3339C62.2474 26.0949 60.7739 27.6527 59.5688 28.7612C58.9635 29.3179 58.4529 29.7361 58.0538 30.0074C58.0089 30.0378 57.9668 30.0656 57.9271 30.0909C57.9034 30.0338 57.8784 29.9693 57.8525 29.8967C57.6241 29.2562 57.4305 28.288 57.3256 27.1343C57.1136 24.802 57.2967 22.108 57.9643 20.3911L55.6798 19.1393L55.6199 19.2252C55.5806 19.2819 55.5223 19.3656 55.4474 19.473C55.2974 19.6879 55.0808 19.9979 54.8142 20.3772C54.2807 21.1362 53.5484 22.172 52.7516 23.2808C51.1403 25.523 49.3202 27.986 48.3319 29.1054L47.5045 30.0427C47.4492 30.1 47.3986 30.149 47.3529 30.1907C47.3257 30.1041 47.2982 30.0008 47.2725 29.8797C46.9993 28.5944 47.1496 26.4746 47.6443 25.0545L45.3941 23.7805C45.3934 23.7799 45.3934 23.7799 45.3934 23.7799L45.3933 23.78L45.3901 23.7841L45.3776 23.7997C45.3664 23.8138 45.3493 23.8352 45.3266 23.8634C45.281 23.9201 45.2134 24.004 45.1259 24.1111C44.9507 24.3254 44.6971 24.6317 44.3858 24.9975C43.7616 25.7305 42.9128 26.6925 42.0039 27.6221C41.0854 28.5615 40.1473 29.4246 39.3418 29.991C38.9362 30.276 38.6171 30.4478 38.3898 30.5293L38.3815 30.5323C38.2749 30.3228 38.1577 29.9877 38.0684 29.5292C37.8889 28.6091 37.8552 27.3648 38.1021 26.0494C38.5662 23.5764 39.9765 21.008 43.0975 19.7704L46.9207 21.9217L48.188 19.5995L43.8488 17.1579L42.8207 17.0206L41.5181 17.1313C37.7477 17.4521 34.1186 17.6663 30.6918 17.7586C29.1136 12.9395 26.3444 9.25563 23.0911 6.6393ZM17.2161 6.08667C18.068 6.47897 18.9137 6.94025 19.7396 7.47286L14.9413 17.0447C14.1788 16.93 13.4443 16.8018 12.7394 16.6597C9.16257 15.9386 6.48948 14.8845 4.79396 13.5333C3.16881 12.2382 2.45048 10.6915 2.64595 8.73256C2.8478 6.70972 4.4107 5.20996 7.17686 4.61207C9.93806 4.01526 13.6154 4.42825 17.2161 6.08667ZM10.758 31.2419L16.4334 19.9204C20.0942 20.3494 24.2459 20.512 28.7366 20.4533C29.368 23.076 29.6309 26.048 29.4049 29.3898L24.0574 25.3926L22.7051 25.2706L10.758 31.2419ZM17.7021 17.3893C20.7798 17.7023 24.2201 17.8339 27.9362 17.8064C26.5623 14.0762 24.3879 11.1867 21.8783 9.05865L17.7021 17.3893ZM64.4168 6.36102C64.2635 5.33687 64.1321 4.44341 64.0279 3.72876C64.4549 3.91005 64.9005 4.16342 65.3605 4.49015C66.4061 5.23288 67.4382 6.29408 68.3654 7.51674C70.1055 9.81119 71.3 12.4318 71.5956 14.1664C70.4087 16.0277 68.655 18.4105 66.7516 20.7854C66.4916 19.3337 66.232 17.8205 65.9806 16.3083C65.3763 12.6744 64.8211 9.06407 64.4168 6.36102ZM78.0516 39.3854C79.8101 38.5576 82.1288 37.468 85.0931 36.0795C83.8926 42.7652 82.6048 49.9095 81.8606 53.9554C78.2823 51.1753 76.396 47.9883 75.3947 45.398C74.8212 43.9148 74.5366 42.6228 74.3954 41.711C74.3631 41.502 74.3383 41.3134 74.3194 41.1474L74.5765 41.0257C75.3126 40.6772 76.4496 40.1398 78.0516 39.3854Z" fill="#E21C13"/>
<path d="M58.3777 12.346L55.9303 16.2424L58.1155 17.6604L60.5629 13.7641L58.3777 12.346Z" fill="#E21C13"/>
</g>
<defs>
<clipPath id="clip0_2733_529">
<rect width="215" height="57" fill="white" transform="translate(0 0.391602)"/>
</clipPath>
</defs>
</svg>
