<?xml version="1.0" encoding="utf-8"?>
<!-- Generator: Adobe Illustrator 23.1.0, SVG Export Plug-In . SVG Version: 6.00 Build 0)  -->
<svg version="1.1" id="Layer_1" xmlns="http://www.w3.org/2000/svg" xmlns:xlink="http://www.w3.org/1999/xlink" x="0px" y="0px"
	 viewBox="0 0 294 48" style="enable-background:new 0 0 294 48;" xml:space="preserve">
<style type="text/css">
	.st0{fill:#FFFFFF;}
</style>
<g>
	<g>
		<path class="st0" d="M1.71,27.28c0.74-0.15,0.93-0.23,0.93-0.85V3.16c0-0.62-0.19-0.7-0.93-0.85L0.27,1.99V1.22h11.87
			c10.08,0,16.68,3.1,16.68,13.58s-6.59,13.58-16.68,13.58H0.28v-0.78L1.71,27.28z M10.55,27.21h1.59c6.4,0,8.11-3.03,8.11-12.41
			s-1.7-12.41-8.11-12.41h-1.59V27.21z"/>
		<path class="st0" d="M45.23,26.43v-0.19c-1.36,1.32-3.64,2.52-7.41,2.52c-3.26,0-5.35-1.4-5.35-4.69c0-4.97,4.38-6.17,12.76-6.4
			v-2.83c0-2.87-0.97-4.07-3.84-4.07c-2.52,0-4.46,0.74-6.44,1.94l-0.5-0.74c2.25-1.59,5.7-2.91,10.36-2.91
			c6.17,0,8.11,2.64,8.11,6.71v10.74c0,0.62,0.2,0.7,0.93,0.85l1.36,0.31v0.7h-7.99C45.77,28.37,45.23,27.82,45.23,26.43z
			 M45.23,24.99v-6.28c-4.42,0.31-5.23,1.67-5.23,4.81c0,1.98,0.66,2.79,2.17,2.79C43.36,26.32,44.38,25.81,45.23,24.99z"/>
		<path class="st0" d="M56.98,27.67l1.36-0.31c0.74-0.15,0.93-0.23,0.93-0.85V11.84c0-0.62-0.19-0.7-0.93-0.85l-1.36-0.31v-0.7
			l9.31-1.16h0.74V26.5c0,0.62,0.2,0.7,0.93,0.85l1.36,0.31v0.7H56.98L56.98,27.67L56.98,27.67z M59.15,3.32
			c0-2.21,1.63-3.26,3.99-3.26c2.37,0,3.99,1.05,3.99,3.26s-1.63,3.26-3.99,3.26C60.78,6.57,59.15,5.52,59.15,3.32z"/>
		<path class="st0" d="M71.25,27.67l1.36-0.31c0.74-0.15,0.93-0.23,0.93-0.85V3.08c0-0.62-0.2-0.7-0.93-0.85l-1.36-0.31v-0.7
			l9.31-1.16h0.74v26.45c0,0.62,0.19,0.7,0.93,0.85l1.36,0.31v0.7H71.25L71.25,27.67L71.25,27.67z"/>
		<path class="st0" d="M95.85,10.34c-0.74,0.15-1.13,0.5-0.7,1.36l4.5,9.04l4.23-9.85c0.19-0.46,0.19-0.58-0.39-0.66l-1.01-0.11
			V9.52h4.46v0.58l-1.01,0.15c-0.58,0.08-0.78,0.11-1.05,0.74l-7.56,17.38c-2.83,6.48-3.92,8.34-8.03,9.31l-2.09-5.89
			c3.64-0.15,6.87-1.28,9.07-2.79l-9.35-17.84c-0.27-0.54-0.7-0.66-1.09-0.74l-1.16-0.31V9.52h12.18v0.58L95.85,10.34z"/>
		<path class="st0" d="M122.95,26.47c0,0.58,0.19,0.66,0.89,0.81l1.4,0.31v0.78h-5.89v-0.78l1.44-0.31
			c0.74-0.15,0.93-0.23,0.93-0.85V3.16c0-0.62-0.19-0.7-0.93-0.85l-1.44-0.31V1.22h9.93l7.99,17.26l7.13-17.26h10.24v0.78
			l-1.44,0.31c-0.74,0.15-0.93,0.23-0.93,0.85v23.27c0,0.62,0.2,0.7,0.93,0.85l1.44,0.31v0.78h-12.57v-0.78l1.4-0.31
			c0.7-0.15,0.89-0.23,0.89-0.81V4.52l-9.85,23.85h-1.16l-10.4-22.85L122.95,26.47L122.95,26.47z"/>
		<path class="st0" d="M169.7,28.83c-7.64,0-12.1-3.06-12.1-9.89c0-6.83,4.46-9.89,12.1-9.89s12.1,3.06,12.1,9.89
			C181.8,25.77,177.33,28.83,169.7,28.83z M169.7,27.82c3.34,0,4.03-2.33,4.03-8.88s-0.7-8.88-4.03-8.88
			c-3.29,0-4.03,2.33-4.03,8.88C165.66,25.5,166.36,27.82,169.7,27.82z"/>
		<path class="st0" d="M197.7,25.46c0-1.9-1.28-2.44-5.16-3.84c-4.69-1.7-6.94-3.26-6.94-6.82c0-3.92,2.91-5.74,8.76-5.74
			c3.22,0,6.36,0.78,7.8,1.47l-0.46,4.65h-0.66c-1.2-2.95-2.72-5.28-6.79-5.28c-2.13,0-3.73,0.43-3.73,2.25c0,1.79,1.24,2.29,5,3.8
			c5.74,2.33,7.99,3.64,7.99,7.37c0,3.99-3.14,5.51-8.92,5.51c-3.22,0-7.13-0.7-8.81-1.47l0.54-5.27h0.66
			c0.97,4.19,3.41,5.82,7.13,5.82C196.42,27.91,197.7,27.36,197.7,25.46z"/>
		<path class="st0" d="M227.76,10.6l-0.46,5.08h-0.74c-1.01-3.49-2.4-5.62-6.05-5.62c-3.96,0-5.2,2.99-5.2,7.83
			c0,5.97,1.09,9.23,6.05,9.23c2.56,0,4.5-0.81,6.32-2.05l0.5,0.74c-2.17,1.67-5.04,3.03-9.39,3.03c-7.06,0-11.56-3.14-11.56-10.12
			c0-6.44,4.34-9.66,12.57-9.66C223.76,9.05,226.2,9.83,227.76,10.6z"/>
		<path class="st0" d="M244.01,28.83c-7.64,0-12.1-3.06-12.1-9.89c0-6.83,4.46-9.89,12.1-9.89s12.1,3.06,12.1,9.89
			C256.11,25.77,251.65,28.83,244.01,28.83z M244.01,27.82c3.34,0,4.03-2.33,4.03-8.88s-0.7-8.88-4.03-8.88
			c-3.29,0-4.03,2.33-4.03,8.88C239.98,25.5,240.68,27.82,244.01,27.82z"/>
		<path class="st0" d="M282.64,10.34c-0.74,0.15-1.13,0.5-0.7,1.36l4.5,9.04l4.58-9.85c0.2-0.46-0.15-0.58-0.74-0.66l-1.01-0.11
			V9.52h4.46v0.58l-1.01,0.15c-0.58,0.08-0.78,0.11-1.05,0.74l-7.87,18.07h-0.7L276.23,16l-5.7,13.07h-0.7l-9.39-17.92
			c-0.27-0.54-0.7-0.66-1.09-0.74l-1.16-0.31V9.52h11.87v0.58l-0.7,0.15c-0.74,0.15-1.13,0.58-0.7,1.44l4.5,9.04l2.48-5.82
			l-1.94-3.76c-0.27-0.54-0.54-0.7-0.93-0.81l-0.93-0.23V9.51h11.79v0.58L282.64,10.34z"/>
	</g>
	<g>
		<path class="st0" d="M122.32,46.71v-0.59c-2.14-0.02-3.05-1.24-3.05-2.57c0-0.72,0.26-1.34,0.77-1.84
			c0.51-0.51,1.27-0.76,2.27-0.77v-0.55h0.4v0.55c2.13,0.01,3.04,1.27,3.04,2.59c0,1.34-0.91,2.56-3.04,2.59v0.59L122.32,46.71
			L122.32,46.71z M122.32,41.31c-0.94,0-1.67,0.28-2.06,0.73c-0.39,0.44-0.58,0.93-0.58,1.48s0.19,1.05,0.58,1.49
			c0.39,0.44,1.12,0.72,2.06,0.72V41.31z M122.72,45.74c0.94,0,1.67-0.28,2.06-0.72c0.39-0.44,0.57-0.94,0.57-1.49
			s-0.18-1.04-0.57-1.48c-0.39-0.45-1.12-0.73-2.06-0.73V45.74z"/>
		<path class="st0" d="M127.74,46.55v-6.03h4.04v0.37h-3.64v2.23h3.01v0.37h-3.01v2.69h3.78v0.37L127.74,46.55L127.74,46.55z"/>
		<path class="st0" d="M132.92,47.94v-1.76h0.56c0.41-0.56,0.7-1.21,0.88-1.93c0.18-0.72,0.28-1.76,0.28-3.1v-0.63h3.52v5.66h0.95
			v1.76h-0.38v-1.39h-5.43v1.39L132.92,47.94L132.92,47.94z M137.77,46.18v-5.3h-2.73v0.41c0,2.3-0.3,3.82-1.09,4.89H137.77z"/>
		<path class="st0" d="M140.75,46.55v-6.03h4.04v0.37h-3.64v2.23h3.01v0.37h-3.01v2.69h3.78v0.37L140.75,46.55L140.75,46.55z"/>
		<path class="st0" d="M146.68,46.55v-6.03h2.51c1.17,0,1.86,0.65,1.86,1.62c0,0.97-0.69,1.63-1.86,1.63h-2.11v2.79H146.68z
			 M147.07,43.4h2.08c0.96,0,1.5-0.46,1.5-1.26c0-0.79-0.54-1.25-1.5-1.25h-2.08V43.4z"/>
		<path class="st0" d="M151.6,46.55l2.74-6.07h0.37l2.72,6.07h-0.41l-0.8-1.78h-3.4l-0.8,1.78H151.6z M152.97,44.43h3.11L154.53,41
			L152.97,44.43z"/>
		<path class="st0" d="M159.92,40.52h3.59v6.03h-0.4v-5.66h-2.79l-0.04,1.43c-0.01,0.48-0.03,0.9-0.06,1.25
			c-0.04,0.69-0.15,1.42-0.32,1.88c-0.25,0.71-0.67,1.11-1.4,1.11c-0.1,0-0.16,0-0.21-0.01v-0.38c0.05,0.01,0.13,0.01,0.23,0.01
			c0.58,0.04,0.92-0.51,1.1-1.19c0.06-0.22,0.11-0.5,0.15-0.84c0.03-0.35,0.06-0.67,0.07-0.98c0.02-0.3,0.03-0.68,0.04-1.12
			L159.92,40.52z"/>
		<path class="st0" d="M165.76,46.55v-6.03h0.4v2.37h1.99c0.67,0,1.17,0.17,1.54,0.51s0.55,0.78,0.55,1.32
			c0,1.11-0.78,1.83-2.1,1.83L165.76,46.55L165.76,46.55z M166.16,46.18h1.97c1.1,0,1.72-0.54,1.72-1.47c0-0.92-0.63-1.46-1.72-1.46
			h-1.97V46.18z"/>
		<path class="st0" d="M172.04,46.55v-6.03h0.4v2.6h3.94v-2.6h0.4v6.03h-0.4v-3.06h-3.94v3.06H172.04z"/>
		<path class="st0" d="M179.63,45.77c-0.57-0.59-0.85-1.34-0.85-2.23c0-0.89,0.28-1.63,0.85-2.23c0.58-0.59,1.29-0.9,2.15-0.9
			c0.85,0,1.56,0.3,2.14,0.9s0.86,1.34,0.86,2.23s-0.28,1.64-0.86,2.23c-0.58,0.59-1.28,0.89-2.14,0.89S180.21,46.36,179.63,45.77z
			 M181.78,46.28c0.73,0,1.35-0.26,1.84-0.79c0.5-0.53,0.75-1.17,0.75-1.96c0-0.79-0.25-1.43-0.75-1.96
			c-0.5-0.53-1.11-0.79-1.84-0.79c-0.73,0-1.35,0.26-1.84,0.79c-0.5,0.53-0.75,1.17-0.75,1.96c0,0.79,0.25,1.43,0.75,1.96
			C180.43,46.02,181.04,46.28,181.78,46.28z"/>
		<path class="st0" d="M186.77,46.55v-6.03h4.04v0.37h-3.64v2.23h3.01v0.37h-3.01v2.69h3.78v0.37L186.77,46.55L186.77,46.55z"/>
		<path class="st0" d="M194.7,47.94v-1.76h0.56c0.41-0.56,0.7-1.21,0.88-1.93s0.28-1.76,0.28-3.1v-0.63h3.52v5.66h0.95v1.76h-0.38
			v-1.39h-5.43v1.39L194.7,47.94L194.7,47.94z M199.54,46.18v-5.3h-2.73v0.41c0,2.3-0.3,3.82-1.09,4.89H199.54z"/>
		<path class="st0" d="M202.52,46.55v-6.03h4.04v0.37h-3.64v2.23h3.01v0.37h-3.01v2.69h3.78v0.37L202.52,46.55L202.52,46.55z"/>
		<path class="st0" d="M209.3,40.52h3.59v6.03h-0.4v-5.66h-2.79l-0.04,1.43c-0.01,0.48-0.03,0.9-0.06,1.25
			c-0.04,0.69-0.15,1.42-0.32,1.88c-0.25,0.71-0.68,1.11-1.4,1.11c-0.1,0-0.16,0-0.21-0.01v-0.38c0.05,0.01,0.13,0.01,0.23,0.01
			c0.58,0.04,0.92-0.51,1.1-1.19c0.06-0.22,0.11-0.5,0.15-0.84c0.03-0.35,0.06-0.67,0.07-0.98c0.02-0.3,0.03-0.68,0.04-1.12
			L209.3,40.52z"/>
		<path class="st0" d="M215.73,45.77c-0.57-0.59-0.85-1.34-0.85-2.23c0-0.89,0.28-1.63,0.85-2.23c0.58-0.59,1.29-0.9,2.15-0.9
			c0.85,0,1.56,0.3,2.14,0.9s0.86,1.34,0.86,2.23s-0.28,1.64-0.86,2.23c-0.58,0.59-1.28,0.89-2.14,0.89S216.31,46.36,215.73,45.77z
			 M217.88,46.28c0.73,0,1.35-0.26,1.84-0.79c0.5-0.53,0.75-1.17,0.75-1.96c0-0.79-0.25-1.43-0.75-1.96
			c-0.5-0.53-1.11-0.79-1.84-0.79c-0.73,0-1.35,0.26-1.84,0.79c-0.5,0.53-0.75,1.17-0.75,1.96c0,0.79,0.25,1.43,0.75,1.96
			C216.54,46.02,217.15,46.28,217.88,46.28z"/>
		<path class="st0" d="M222.87,46.55v-6.03h2.53c1.06,0,1.69,0.55,1.69,1.46c0,0.67-0.28,1.1-0.84,1.29
			c0.86,0.13,1.38,0.74,1.38,1.61c0,1.01-0.72,1.67-1.94,1.67H222.87z M223.27,43.17h2.09c0.86,0,1.36-0.41,1.36-1.14
			c0-0.72-0.49-1.14-1.36-1.14h-2.09L223.27,43.17L223.27,43.17z M223.27,46.18h2.37c1,0,1.57-0.48,1.57-1.34
			c0-0.85-0.57-1.34-1.57-1.34h-2.37L223.27,46.18L223.27,46.18z"/>
		<path class="st0" d="M229.97,45.77c-0.57-0.59-0.85-1.34-0.85-2.23c0-0.89,0.28-1.63,0.85-2.23c0.58-0.59,1.29-0.9,2.15-0.9
			s1.56,0.3,2.14,0.9c0.58,0.59,0.86,1.34,0.86,2.23s-0.28,1.64-0.86,2.23c-0.58,0.59-1.28,0.89-2.14,0.89
			S230.55,46.36,229.97,45.77z M232.12,46.28c0.73,0,1.35-0.26,1.84-0.79c0.5-0.53,0.75-1.17,0.75-1.96c0-0.79-0.25-1.43-0.75-1.96
			c-0.5-0.53-1.11-0.79-1.84-0.79c-0.73,0-1.35,0.26-1.84,0.79c-0.5,0.53-0.75,1.17-0.75,1.96c0,0.79,0.25,1.43,0.75,1.96
			C230.78,46.02,231.39,46.28,232.12,46.28z"/>
		<path class="st0" d="M237.11,46.55v-6.03h4.04v0.37h-3.64v2.23h3.01v0.37h-3.01v2.69h3.78v0.37L237.11,46.55L237.11,46.55z"/>
		<path class="st0" d="M245.79,46.55v-6.03h0.4v5.36l4.08-5.36h0.36v6.03h-0.4v-5.38l-4.09,5.38H245.79z"/>
		<path class="st0" d="M252.39,46.22V45.8c0.57,0.32,1.21,0.47,1.91,0.47c1.25,0,2.03-0.58,2.03-1.45c0-0.4-0.16-0.72-0.5-0.99
			c-0.33-0.27-0.77-0.4-1.33-0.4h-0.74v-0.37h0.79c0.92,0,1.5-0.43,1.5-1.15c0-0.71-0.67-1.12-1.61-1.12c-0.59,0-1.17,0.13-1.75,0.4
			v-0.39c0.58-0.26,1.17-0.39,1.77-0.39c0.58,0,1.05,0.13,1.42,0.4c0.37,0.27,0.56,0.63,0.56,1.1c0,0.38-0.11,0.68-0.34,0.9
			c-0.23,0.22-0.46,0.36-0.73,0.43c0.57,0.15,1.39,0.62,1.39,1.61c0,0.53-0.22,0.97-0.64,1.3c-0.42,0.34-1,0.51-1.73,0.51
			C253.61,46.66,252.95,46.51,252.39,46.22z"/>
		<path class="st0" d="M257.86,47.94v-1.76h0.56c0.41-0.56,0.7-1.21,0.88-1.93c0.18-0.72,0.28-1.76,0.28-3.1v-0.63h3.52v5.66h0.95
			v1.76h-0.38v-1.39h-5.43v1.39L257.86,47.94L257.86,47.94z M262.7,46.18v-5.3h-2.73v0.41c0,2.3-0.3,3.82-1.09,4.89H262.7z"/>
		<path class="st0" d="M265.06,46.55l2.74-6.07h0.37l2.72,6.07h-0.41l-0.8-1.78h-3.4l-0.8,1.78H265.06z M266.42,44.43h3.11
			L267.98,41L266.42,44.43z"/>
		<path class="st0" d="M272.52,46.55v-6.03h0.4v2.6h3.94v-2.6h0.4v6.03h-0.4v-3.06h-3.94v3.06H272.52z"/>
		<path class="st0" d="M279.51,46.55v-6.03h0.4v5.36l4.08-5.36h0.36v6.03h-0.4v-5.38l-4.09,5.38H279.51z"/>
		<path class="st0" d="M286.61,46.55v-6.03h4.04v0.37h-3.64v2.23h3.01v0.37h-3.01v2.69h3.78v0.37L286.61,46.55L286.61,46.55z"/>
	</g>
</g>
</svg>
