<svg width="222" height="58" viewBox="0 0 222 58" fill="none" xmlns="http://www.w3.org/2000/svg">
<g clip-path="url(#clip0_590_7588)">
<path d="M105.719 33.0779V20.098L111.199 33.0779H115.858L121.337 20.098V33.0779H126.155V13.29H119.378L113.528 26.9854L107.704 13.29H100.901V33.0779H105.719Z" fill="black"/>
<path d="M136.384 33.4224C138.926 33.4224 141.017 32.7601 142.632 31.4091C144.246 30.0581 145.067 28.1773 145.067 25.7668C145.067 23.3827 144.246 21.5019 142.632 20.1509C141.017 18.7999 138.926 18.1112 136.384 18.1112C133.816 18.1112 131.699 18.7999 130.084 20.1509C128.469 21.5019 127.675 23.3827 127.675 25.7668C127.675 28.1773 128.469 30.0581 130.084 31.4091C131.699 32.7601 133.816 33.4224 136.384 33.4224ZM136.358 29.5018C134.134 29.5018 132.572 28.0713 132.572 25.7668C132.572 23.5151 134.134 22.0317 136.358 22.0317C138.608 22.0317 140.143 23.5151 140.143 25.7668C140.143 28.0713 138.608 29.5018 136.358 29.5018Z" fill="black"/>
<path d="M153.631 33.4224C155.908 33.4224 157.761 32.9721 159.217 32.0714C160.674 31.1708 161.414 29.9521 161.414 28.3893C161.414 27.0383 160.885 25.9787 159.826 25.2104C158.793 24.4423 157.549 24.0185 156.093 23.992L152.069 23.8596C150.825 23.8331 150.296 23.5947 150.296 22.8264C150.296 21.8992 151.275 21.4489 153.234 21.4489C155.167 21.4489 156.173 21.9523 156.305 22.9853H161.175C161.044 21.3694 160.223 20.1775 158.714 19.3563C157.205 18.535 155.379 18.1112 153.234 18.1112C151.011 18.1112 149.184 18.5616 147.781 19.4622C146.378 20.3629 145.69 21.5814 145.69 23.1444C145.69 24.3894 146.193 25.3959 147.199 26.1642C148.231 26.9323 149.475 27.3297 150.931 27.3561L154.955 27.4886C156.199 27.5152 156.835 27.833 156.835 28.7071C156.835 29.6343 155.776 30.0847 153.631 30.0847C151.699 30.0847 150.269 29.4224 150.163 28.3628H145.319C145.425 30.0317 146.246 31.2768 147.754 32.1509C149.29 32.9985 151.249 33.4224 153.631 33.4224Z" fill="black"/>
<path d="M170.516 33.4224C172.739 33.4224 174.592 32.8927 176.103 31.8595C177.611 30.8264 178.537 29.3694 178.881 27.4886H173.825C173.27 28.8397 172.158 29.5018 170.516 29.5018C168.372 29.5018 166.757 28.0713 166.757 25.7668C166.757 23.4622 168.318 22.0317 170.516 22.0317C172.158 22.0317 173.27 22.694 173.825 24.0449H178.881C178.219 20.2569 174.989 18.1112 170.516 18.1112C167.975 18.1112 165.884 18.7999 164.269 20.1509C162.654 21.5019 161.86 23.3827 161.86 25.7668C161.86 28.151 162.654 30.0317 164.269 31.3826C165.884 32.7336 167.975 33.4224 170.516 33.4224Z" fill="black"/>
<path d="M187.985 33.4224C190.526 33.4224 192.618 32.7601 194.233 31.4091C195.847 30.0581 196.668 28.1773 196.668 25.7668C196.668 23.3827 195.847 21.5019 194.233 20.1509C192.618 18.7999 190.526 18.1112 187.985 18.1112C185.418 18.1112 183.299 18.7999 181.686 20.1509C180.071 21.5019 179.277 23.3827 179.277 25.7668C179.277 28.1773 180.071 30.0581 181.686 31.4091C183.299 32.7601 185.418 33.4224 187.985 33.4224ZM187.958 29.5018C185.735 29.5018 184.174 28.0713 184.174 25.7668C184.174 23.5151 185.735 22.0317 187.958 22.0317C190.209 22.0317 191.744 23.5151 191.744 25.7668C191.744 28.0713 190.209 29.5018 187.958 29.5018Z" fill="black"/>
<path d="M206.093 33.0779L208.82 24.5483L211.519 33.0779H216.496L221.949 18.4556H216.841L213.955 28.1244L210.805 18.4556H206.835L203.789 28.1244L200.799 18.4556H195.689L201.116 33.0779H206.093Z" fill="black"/>
<path fill-rule="evenodd" clip-rule="evenodd" d="M23.8429 6.35731L26.4534 1.22544L24.0476 0L21.6117 4.78861C20.7229 4.23686 19.8123 3.75265 18.8918 3.33484C14.7445 1.4525 10.3588 0.904649 6.84849 1.65233C3.34339 2.39893 0.4173 4.55089 0.0462802 8.21496C-0.260313 11.2428 0.971865 13.6821 3.28339 15.4974C5.52227 17.2556 8.76743 18.4361 12.6285 19.2032C13.12 19.3008 13.6239 19.3922 14.1396 19.4775L6.86253 33.783L8.66153 35.6076L23.9007 28.1016L30.6693 33.0876L32.8082 32.174C33.3854 27.7304 33.193 23.7964 32.4299 20.3532C34.6869 20.2841 37.0154 20.1667 39.3991 20.0057C37.8832 21.6833 37.0522 23.7039 36.6907 25.6022C36.3734 27.2684 36.4047 28.8845 36.6595 30.1733C36.7866 30.8152 36.9778 31.4204 37.2409 31.9249C37.4807 32.385 37.8899 32.9723 38.5631 33.2469C39.2834 33.5408 40.0094 33.4008 40.5393 33.2135C41.0918 33.0181 41.6442 32.6964 42.1592 32.3397C43.1946 31.6224 44.3 30.6065 45.2872 29.6115C45.5232 29.3736 45.7549 29.1344 45.98 28.8975C46 29.4967 46.0633 30.0674 46.1727 30.5751C46.2751 31.0497 46.4317 31.5374 46.6775 31.9642C46.9209 32.3869 47.3146 32.8542 47.9288 33.0884C48.578 33.336 49.2292 33.2316 49.7761 32.9685C50.22 32.7547 50.6306 32.4237 51.0143 32.026L51.0147 32.0265L51.026 32.0138C51.0879 31.9493 51.1491 31.8832 51.2096 31.8155L52.1092 30.8085L52.1055 30.8051C53.1962 29.5468 54.908 27.2651 56.4064 25.2165C56.4036 25.9918 56.4385 26.7506 56.5039 27.4601C56.6238 28.7597 56.8547 29.9944 57.1979 30.9424C57.3668 31.4093 57.5912 31.8873 57.9014 32.2733C58.2023 32.6481 58.7462 33.1259 59.5403 33.1202C59.9433 33.1172 60.3075 32.9918 60.5806 32.8704C60.8702 32.7419 61.1621 32.5701 61.4456 32.3802C62.0128 32.0003 62.6499 31.4773 63.3205 30.8695C64.5191 29.7832 65.9137 28.344 67.3484 26.752C67.3668 26.8381 67.3854 26.9236 67.4038 27.0083C67.7176 28.4492 68.0247 29.7038 68.3126 30.638C68.4552 31.1009 68.6048 31.524 68.7627 31.8647C68.8411 32.0338 68.9375 32.2176 69.0561 32.3872C69.1567 32.5304 69.3647 32.7994 69.7099 32.9751C70.254 33.252 70.7894 33.1622 71.1015 33.07C71.4327 32.9723 71.7417 32.8056 72.0044 32.6389C72.5362 32.3015 73.1253 31.8031 73.7188 31.2452C74.9186 30.1169 76.3315 28.5578 77.6636 27.0073C78.3722 26.1828 79.0653 25.3519 79.7015 24.5759C79.6078 25.5348 79.5389 26.5062 79.5121 27.42C79.4728 28.7535 79.5181 30.0807 79.7585 31.0837C79.8749 31.5695 80.0737 32.1446 80.4664 32.5935C80.677 32.834 80.9627 33.0602 81.3341 33.1911C81.7113 33.3239 82.0941 33.329 82.4465 33.2504C83.6903 32.9724 84.8726 32.0864 85.8872 31.118C86.9386 30.1144 87.9792 28.8551 88.9308 27.5816C89.1662 27.2667 89.3982 26.9481 89.6253 26.6293C89.2799 28.5312 88.8799 30.7316 88.4549 33.0665C84.5534 34.8659 81.6023 36.2319 79.4573 37.2273C77.8013 37.9956 76.6256 38.5431 75.8637 38.8986C75.4827 39.0764 75.2051 39.2063 75.0227 39.2916C74.9315 39.3343 74.864 39.3659 74.8192 39.3869L74.7527 39.4182H74.7524L73.9762 40.6408C73.9762 40.6408 73.9762 40.6416 73.9762 40.6424V40.6591L73.9763 40.6733L73.9767 40.6914C73.9771 40.7176 73.9779 40.753 73.9794 40.7972C73.9824 40.8857 73.9883 41.0095 73.9994 41.1655C74.0216 41.4775 74.0653 41.9187 74.1507 42.4636C74.3217 43.5526 74.6612 45.0622 75.3364 46.7831C76.6913 50.2366 79.3925 54.523 84.7375 57.9461L86.7909 57.0621C87.4289 53.722 89.0982 44.6001 90.6063 36.3215C90.6913 35.8554 90.7756 35.3919 90.8593 34.9322C92.6558 34.1043 94.6373 33.1919 96.816 32.19L98.0425 31.6259L96.9152 29.1713L95.6887 29.7354C94.1831 30.4278 92.7716 31.0775 91.45 31.6861C91.8823 29.3103 92.2775 27.1341 92.6013 25.3503C92.8644 23.9016 93.0803 22.7117 93.2303 21.884L93.4645 20.5919L93.4647 20.591L93.4649 20.5906L91.0048 19.6139C90.8213 19.8964 90.602 20.2437 90.3518 20.6397L90.351 20.6412C89.4646 22.0446 88.1924 24.0592 86.769 25.9638C85.8594 27.181 84.9209 28.307 84.0238 29.1634C83.3734 29.784 82.819 30.19 82.3749 30.4168C82.2281 29.7751 82.1733 28.7597 82.2105 27.4996C82.2848 24.9729 82.7109 21.9079 83.0577 20.1149L80.6619 19.0358L80.6352 19.0704C80.6173 19.0938 80.5901 19.1289 80.5547 19.1746C80.4839 19.2663 80.3792 19.4014 80.2452 19.5732C79.9772 19.9169 79.5919 20.4077 79.1243 20.9944C78.1881 22.1689 76.9262 23.722 75.6167 25.2462C74.3006 26.7779 72.9629 28.249 71.8702 29.2765C71.5232 29.6027 71.2196 29.8663 70.9636 30.0669C70.9406 29.9965 70.9169 29.9216 70.8923 29.842C70.6384 29.0176 70.3502 27.851 70.0415 26.4332C69.8898 25.7363 69.7345 24.9858 69.5775 24.1951C72.2683 21.0119 74.8956 17.5589 76.4719 15.0467L76.6732 14.2077C76.4533 11.7552 74.8418 8.34563 72.7301 5.60188C71.6565 4.20683 70.3999 2.91173 69.036 1.95694C67.6808 1.00828 66.1263 0.331927 64.4899 0.343827L63.1636 1.88606V1.88646L63.1758 1.97108C63.1838 2.02681 63.1957 2.10936 63.2113 2.21697C63.2425 2.43215 63.2884 2.74758 63.3473 3.14915C63.4653 3.95223 63.6356 5.10001 63.845 6.47981C64.2639 9.23873 64.8396 12.9282 65.467 16.6457C65.8581 18.9638 66.2703 21.2995 66.6781 23.4307C66.4056 23.7455 66.1335 24.0565 65.8622 24.3624C64.2741 26.1542 62.7526 27.7394 61.5083 28.8673C60.8833 29.4338 60.3561 29.8594 59.944 30.1354C59.8976 30.1664 59.8541 30.1946 59.8131 30.2204C59.7887 30.1622 59.7628 30.0966 59.7361 30.0227C59.5003 29.371 59.3004 28.3858 59.1921 27.2119C58.9731 24.8386 59.1622 22.0974 59.8516 20.3504L57.4926 19.0766L57.4308 19.164C57.3902 19.2217 57.33 19.3069 57.2527 19.4162C57.0978 19.6348 56.8741 19.9503 56.5989 20.3362C56.048 21.1085 55.2918 22.1625 54.4691 23.2907C52.8054 25.5723 50.926 28.0785 49.9055 29.2175L49.0512 30.1713C48.994 30.2296 48.9418 30.2795 48.8946 30.3219C48.8665 30.2337 48.8381 30.1287 48.8116 30.0054C48.5296 28.6976 48.6847 26.5406 49.1956 25.0956L46.872 23.7992C46.8714 23.7986 46.8714 23.7986 46.8714 23.7986L46.8712 23.7987L46.8679 23.8029L46.855 23.8188C46.8434 23.8331 46.8258 23.8548 46.8023 23.8836C46.7553 23.9413 46.6854 24.0266 46.5951 24.1356C46.4142 24.3536 46.1523 24.6654 45.8309 25.0376C45.1864 25.7835 44.31 26.7623 43.3715 27.7083C42.4231 28.6641 41.4545 29.5423 40.6227 30.1187C40.2039 30.4087 39.8744 30.5835 39.6397 30.6664L39.6311 30.6694C39.5211 30.4564 39.4001 30.1153 39.3078 29.6488C39.1225 28.7125 39.0877 27.4464 39.3426 26.1079C39.8218 23.5915 41.278 20.978 44.5007 19.7187L48.4484 21.9078L49.7569 19.5449L45.2764 17.0604L44.2148 16.9207L42.8698 17.0334C38.9767 17.3598 35.2294 17.5778 31.6911 17.6717C30.0615 12.768 27.2021 9.01954 23.8429 6.35731ZM17.7767 5.79498C18.6563 6.19416 19.5295 6.66353 20.3822 7.20549L15.4277 16.9452C14.6404 16.8286 13.882 16.6981 13.1542 16.5535C9.46088 15.8198 6.70076 14.7472 4.95004 13.3723C3.27198 12.0545 2.53026 10.4806 2.73209 8.48729C2.94052 6.42896 4.5543 4.90289 7.41053 4.29451C10.2616 3.68723 14.0587 4.10746 17.7767 5.79498ZM11.1082 31.3915L16.9684 19.8714C20.7484 20.3079 25.0353 20.4734 29.6723 20.4136C30.3241 23.0824 30.5957 26.1065 30.3622 29.5069L24.8407 25.4396L23.4443 25.3155L11.1082 31.3915ZM18.2785 17.2959C21.4563 17.6144 25.0087 17.7483 28.8457 17.7204C27.4272 13.9247 25.1819 10.9845 22.5906 8.8191L18.2785 17.2959ZM66.5141 6.07414C66.3558 5.03203 66.2202 4.12289 66.1125 3.3957C66.5535 3.58017 67.0135 3.838 67.4885 4.17045C68.5681 4.92622 69.6338 6.00604 70.5912 7.25014C72.388 9.58484 73.6214 12.2514 73.9266 14.0165C72.701 15.9104 70.8903 18.335 68.925 20.7516C68.6564 19.2744 68.3884 17.7347 68.1288 16.196C67.5048 12.4983 66.9316 8.82461 66.5141 6.07414ZM80.5928 39.6779C82.4085 38.8355 84.8027 37.7269 87.8636 36.314C86.624 43.117 85.2942 50.3866 84.5258 54.5035C80.831 51.6747 78.8834 48.4318 77.8494 45.796C77.2573 44.2867 76.9633 42.9721 76.8176 42.0443C76.7842 41.8317 76.7586 41.6397 76.7391 41.4708L77.0046 41.347C77.7646 40.9923 78.9386 40.4455 80.5928 39.6779Z" fill="#E21C13"/>
<path d="M60.2784 12.1642L57.7513 16.1289L60.0076 17.5718L62.5348 13.6071L60.2784 12.1642Z" fill="#E21C13"/>
</g>
<defs>
<clipPath id="clip0_590_7588">
<rect width="222" height="58" fill="white"/>
</clipPath>
</defs>
</svg>
