<svg width="14" height="12" viewBox="0 0 14 12" fill="none" xmlns="http://www.w3.org/2000/svg"><path d="M0.859084 5.22613L9.19788 1.66421C10.021 1.2932 12.8126 0.105929 12.8126 0.105929C12.8126 0.105929 14.1011 -0.413461 13.9936 0.847947C13.9578 1.36734 13.6717 3.18547 13.3852 5.15177L12.4906 10.9769C12.4906 10.9769 12.419 11.8303 11.8095 11.9786C11.2001 12.127 10.199 11.4592 10.0202 11.3108C9.87707 11.1995 7.33602 9.52985 6.40545 8.71359C6.1549 8.49107 5.86865 8.04571 6.44126 7.52632C7.72969 6.30192 9.26866 4.78066 10.199 3.81602C10.6285 3.37076 11.058 2.33187 9.26856 3.5935L4.22236 7.11829C4.22236 7.11829 3.64965 7.4893 2.57606 7.15541C1.50247 6.82153 0.249849 6.37627 0.249849 6.37627C0.249849 6.37627 -0.609106 5.81976 0.858258 5.22623L0.859084 5.22613Z" fill="black"/></svg>