<svg width="14" height="12" viewBox="0 0 14 12" fill="none" xmlns="http://www.w3.org/2000/svg"><path d="M4.40272 12C9.68576 12 12.5754 7.38284 12.5754 3.37887C12.5754 3.24772 12.5754 3.11717 12.567 2.98721C13.1291 2.55829 13.6144 2.0272 14 1.41882C13.4758 1.66386 12.9197 1.82455 12.3502 1.89554C12.9499 1.51687 13.3986 0.921288 13.613 0.219634C13.0492 0.57257 12.4324 0.821301 11.7891 0.955095C11.356 0.469327 10.7833 0.147664 10.1594 0.0398822C9.53561 -0.0678997 8.8955 0.0442082 8.33815 0.358858C7.7808 0.673508 7.3373 1.17316 7.07627 1.78049C6.81524 2.38782 6.75123 3.06897 6.89416 3.71854C5.75218 3.65814 4.63501 3.34509 3.61516 2.79971C2.59531 2.25432 1.69559 1.48879 0.9744 0.552807C0.607092 1.21984 0.494592 2.00947 0.659808 2.76092C0.825024 3.51238 1.25553 4.16916 1.86368 4.59754C1.40658 4.58325 0.959436 4.45318 0.56 4.2183C0.56 4.2307 0.56 4.2437 0.56 4.25669C0.560181 4.95625 0.789746 5.6342 1.20976 6.17556C1.62977 6.71693 2.21437 7.08837 2.8644 7.22689C2.44153 7.34855 1.99785 7.36633 1.56744 7.27887C1.75099 7.88093 2.10832 8.40741 2.58948 8.7847C3.07064 9.16198 3.65154 9.37118 4.25096 9.38306C3.23385 10.2263 1.97739 10.684 0.68376 10.6827C0.455226 10.6822 0.226914 10.6676 0 10.639C1.31356 11.5282 2.84195 11.9998 4.40272 11.9976" fill="black"/></svg>