<svg width="16" height="10" viewBox="0 0 16 10" fill="none" xmlns="http://www.w3.org/2000/svg"><path fill-rule="evenodd" clip-rule="evenodd" d="M7.77209 9.48785H8.69398C8.69398 9.48785 9.03969 9.48785 9.15493 9.26029C9.27017 9.14652 9.27017 8.80519 9.27017 8.80519C9.27017 8.80519 9.27017 7.55365 9.84635 7.32609C10.4225 7.09854 11.2292 8.57763 12.0359 9.14652C12.612 9.60162 13.073 9.48785 13.073 9.48785H15.2625C15.2625 9.48785 16.4149 9.37407 15.8387 8.57763C15.8387 8.46386 15.493 7.89498 14.2254 6.75721C12.8425 5.50567 13.073 5.73323 14.6863 3.57147C15.7234 2.31993 16.0691 1.5235 15.9539 1.18217C15.8387 0.840841 15.1472 0.954617 15.1472 0.954617H12.7273C12.7273 0.954617 12.4968 0.954617 12.3816 0.954617C12.2663 1.06839 12.1511 1.18217 12.1511 1.18217C12.1511 1.18217 11.8054 2.20616 11.2292 3.00259C10.3073 4.93679 9.84635 4.93679 9.61588 4.82301C9.27017 4.59546 9.3854 3.79903 9.3854 3.23014C9.3854 1.5235 9.61588 0.727064 8.80922 0.613288C8.57875 0.499512 8.34827 0.499512 7.65685 0.499512C6.85019 0.499512 6.04353 0.499512 5.69782 0.727064C5.35211 0.840841 5.23688 1.18217 5.35211 1.18217C5.46735 1.18217 5.9283 1.29595 6.04353 1.5235C6.27401 1.86483 6.27401 2.54749 6.27401 2.54749C6.27401 2.54749 6.38924 4.59546 5.9283 4.82301C5.58259 5.05057 5.12164 4.70924 4.19974 3.11637C3.7388 2.20616 3.39309 1.29595 3.39309 1.29595C3.39309 1.29595 3.27785 1.18217 3.16261 1.06839C2.93214 0.954617 2.8169 0.840841 2.8169 0.840841H0.512164C0.512164 0.840841 0.166453 0.840841 0.0512164 0.954617C-0.0640205 1.06839 0.0512164 1.40972 0.0512164 1.40972C0.0512164 1.40972 1.89501 5.50567 3.85403 7.66742C5.69782 9.60162 7.77209 9.48785 7.77209 9.48785Z" fill="black"/></svg>